<svg width="192" height="192" viewBox="0 0 192 192" fill="none" xmlns="http://www.w3.org/2000/svg">
<g clip-path="url(#clip0_449_233)">
<rect x="2" y="2" width="188" height="188" rx="94" stroke="#3D5A69" stroke-width="4"/>
<path d="M86.393 24H105.528V78.9071C105.528 80.4171 105.034 81.5626 104.044 82.3437C103.107 83.0726 100.92 83.6194 97.4838 83.9838C94.0993 84.4004 88.7361 84.6087 81.3943 84.6087C81.3943 81.9011 80.9257 79.1414 79.9885 76.3297C79.1033 73.5179 77.7235 70.9144 75.849 68.5193C74.7034 71.2269 73.4017 73.9345 71.9438 76.6421C68.2989 74.7155 65.0706 73.1534 62.2589 71.9558C59.4471 70.7062 56.5313 69.7689 53.5112 69.1441C57.2082 63.3123 60.3063 56.9078 62.8056 49.9305C65.3049 42.9012 66.9972 36.3144 67.8824 30.1702L84.9871 33.1382C83.7375 40.3758 82.4097 46.8064 81.0038 52.4298C79.65 58.0013 77.9838 63.2082 76.0052 68.0506L78.7388 68.1287C81.0299 68.1287 82.7221 67.9986 83.8156 67.7382C84.909 67.4779 85.612 67.1134 85.9244 66.6448C86.2368 66.1761 86.393 65.5253 86.393 64.6922V24ZM124.117 30.1702C125.002 36.3144 126.695 42.9012 129.194 49.9305C131.693 56.9078 134.791 63.3123 138.488 69.1441C135.468 69.7689 132.552 70.7062 129.741 71.9558C126.929 73.1534 123.701 74.7155 120.056 76.6421C116.932 70.9144 114.38 64.588 112.402 57.6628C110.475 50.6855 108.679 42.5106 107.012 33.1382L124.117 30.1702Z" fill="#3D5A69"/>
<path d="M120.486 116.022H135.521V125.3H56.3082V116.022H71.9446L70.8277 114.303H58.7138V104.681H85.7768V102.189H106.053V104.681H133.116V114.303H121.002L120.486 116.022ZM100.554 114.303H90.9317L91.4472 116.022H100.039L100.554 114.303ZM106.74 153.309H137.24V164.563H106.74V168H85.2613V164.563H54.7617V153.309H85.2613V151.676H59.5729V126.933H132.256V151.676H106.74V153.309ZM112.668 135.782V134.321H79.1614V135.782H112.668ZM112.668 142.14H79.1614V143.772H112.668V142.14Z" fill="#3D5A69"/>
</g>
<defs>
<clipPath id="clip0_449_233">
<rect width="192" height="192" fill="white"/>
</clipPath>
</defs>
</svg>
